<?xml version="1.0" encoding="UTF-8" standalone="no"?>
<svg
   xmlns:dc="http://purl.org/dc/elements/1.1/"
   xmlns:cc="http://creativecommons.org/ns#"
   xmlns:rdf="http://www.w3.org/1999/02/22-rdf-syntax-ns#"
   xmlns:svg="http://www.w3.org/2000/svg"
   xmlns="http://www.w3.org/2000/svg"
   xmlns:xlink="http://www.w3.org/1999/xlink"
   xmlns:sodipodi="http://sodipodi.sourceforge.net/DTD/sodipodi-0.dtd"
   xmlns:inkscape="http://www.inkscape.org/namespaces/inkscape"
   inkscape:version="1.0 (4035a4fb49, 2020-05-01)"
   height="40.695889"
   width="245.65201"
   sodipodi:docname="Qt_Webinars_RGB_white.svg"
   xml:space="preserve"
   viewBox="0 0 245.65201 40.695889"
   y="0px"
   x="0px"
   id="Layer_1"
   version="1.1"><metadata
   id="metadata21"><rdf:RDF><cc:Work
       rdf:about=""><dc:format>image/svg+xml</dc:format><dc:type
         rdf:resource="http://purl.org/dc/dcmitype/StillImage" /><dc:title></dc:title></cc:Work></rdf:RDF></metadata><defs
   id="defs19" /><sodipodi:namedview
   inkscape:document-rotation="0"
   inkscape:current-layer="g14"
   inkscape:window-maximized="0"
   inkscape:window-y="32"
   inkscape:window-x="10"
   inkscape:cy="19.745152"
   inkscape:cx="150.6588"
   inkscape:zoom="4.72"
   fit-margin-bottom="0"
   fit-margin-right="0"
   fit-margin-left="0"
   fit-margin-top="0"
   showgrid="false"
   id="namedview17"
   inkscape:window-height="1038"
   inkscape:window-width="1900"
   inkscape:pageshadow="2"
   inkscape:pageopacity="0"
   guidetolerance="10"
   gridtolerance="10"
   objecttolerance="10"
   borderopacity="1"
   bordercolor="#666666"
   pagecolor="#ffffff" />
<style
   id="style2"
   type="text/css">
	.st0{fill:#707381;}
	.st1{clip-path:url(#SVGID_2_);fill:#FFFFFF;}
</style>
<path
   style="fill:#ffffff;stroke-width:0.717741"
   inkscape:connector-curvature="0"
   id="path4"
   d="M 88.425642,20.312064 Z"
   class="st0" />
<g
   style="fill:#ff0000"
   transform="matrix(0.62479966,0,0,0.62479966,-47.984614,-107.27809)"
   id="g14">
	<defs
   id="defs7">
		<rect
   height="56.700001"
   width="246.3"
   y="171.7"
   x="76.800003"
   id="SVGID_1_" />
	</defs>
	<clipPath
   id="SVGID_2_">
		<use
   height="100%"
   width="100%"
   y="0"
   x="0"
   id="use9"
   style="overflow:visible"
   xlink:href="#SVGID_1_" />
	</clipPath>
	<path
   transform="matrix(1.1487531,0,0,1.1487531,-11.424242,-25.540915)"
   sodipodi:nodetypes="csssssssccsccccsssccccccccccccsccccssscscccccccccccsccsccccccccscccssccsscssccccccccccccccccssccssccssccccssccccccsscccccccccccccsccccsccccsccssscccccccccccccccccccccccc"
   style="fill:#ffffff"
   inkscape:connector-curvature="0"
   id="path12"
   clip-path="url(#SVGID_2_)"
   d="m 111.8,208.5 c 1.1,-1.9 1.6,-5 1.6,-9.5 0,-4.5 -0.6,-7.7 -1.7,-9.7 -1.1,-2 -3.2,-3 -6.3,-3 -3.1,0 -5.2,1 -6.3,3 -1.1,2 -1.7,5.2 -1.7,9.7 0,4.4 0.6,7.6 1.7,9.5 1.1,1.9 3.2,2.9 6.3,2.9 3.1,0 5.3,-1 6.4,-2.9 m 19.3,-13.4 v 10.7 c 0,2 0.1,3.3 0.4,3.9 0.3,0.7 1,1 2.2,1 l 4,-0.1 0.2,4.2 c -2.2,0.4 -3.8,0.6 -5,0.6 -2.8,0 -4.7,-0.6 -5.7,-1.9 -1,-1.3 -1.5,-3.7 -1.5,-7.2 V 195 H 122 v -4.5 h 3.7 v -7.1 h 5.3 v 7.1 h 6.7 v 4.5 h -6.6 z m -12,3.9 c 0,3.9 -0.4,7.1 -1.2,9.5 -0.8,2.4 -2.2,4.2 -4.1,5.5 l 4.1,6.6 -5,2.3 -4.3,-7.1 c -0.6,0.2 -1.6,0.3 -3,0.3 -5.1,0 -8.6,-1.4 -10.6,-4.1 -2,-2.7 -3,-7 -3,-12.9 0,-5.9 1,-10.3 3,-13.1 2,-2.9 5.5,-4.3 10.6,-4.3 5,0 8.5,1.4 10.5,4.3 1.9,2.7 3,7.1 3,13 m 24,29.3 10.7,-10.7 v -46 H 87.5 l -10.7,10.7 v 46 z m 71.5,-26.5 h 6.2 c 0,-2.9 -0.9,-3.9 -3,-3.9 -2.2,0 -3.2,1 -3.2,3.9 m 21.8,0.9 c 0,-3.3 -0.9,-4.6 -2.8,-4.6 -1.6,0 -3.3,0.6 -3.3,0.6 v 9 c 0,0 1.6,0.1 2.2,0.1 3.2,-0.1 3.9,-1.5 3.9,-5.1 m 33.7,5.3 c 1.7,0 3.6,-0.6 3.6,-0.6 v -3.9 l -3.4,0.3 c -1.4,0.1 -2,0.8 -2,2.1 0,1.3 0.5,2.1 1.8,2.1 m 23.9,-8.3 c 0,1 0.6,1.2 3.5,1.7 3.5,0.6 4.8,1.5 4.8,4.4 0,3.4 -2.2,4.7 -5.8,4.7 -2,0 -5.4,-0.6 -5.4,-0.6 l 0.1,-2.7 c 0,0 3.5,0.5 5,0.5 2.1,0 2.9,-0.4 2.9,-1.7 0,-1 -0.5,-1.4 -3.4,-1.8 -3.2,-0.5 -4.9,-1.2 -4.9,-4.4 0,-3.3 2.6,-4.6 5.5,-4.6 2.1,0 5.5,0.6 5.5,0.6 l -0.1,2.7 c 0,0 -3.5,-0.5 -5.2,-0.5 -1.7,0.1 -2.5,0.5 -2.5,1.7 m -4.9,-1.3 c -2.7,0.5 -5,1.6 -5,1.6 v 10.3 h -3.2 v -14.7 h 3.2 v 1.8 c 0,0 2.5,-1.6 5,-2.1 z m -10.9,9.7 -0.1,2.4 c -1.8,0 -2.8,-0.2 -3.9,-1.1 0,0 -2.4,1.1 -4.7,1.1 -2.9,0 -4.4,-1.6 -4.4,-4.7 0,-3.1 1.7,-4.2 4.9,-4.4 l 3.8,-0.3 V 200 c 0,-1.6 -0.7,-2.1 -2.1,-2.1 -2,0 -5.5,0.3 -5.5,0.3 l -0.1,-2.3 c 0,0 3.2,-0.8 5.9,-0.8 3.6,0 5.1,1.5 5.1,4.9 v 6.7 c -0.1,1 0.3,1.3 1.1,1.4 m -15.9,2.1 h -3.2 v -7.8 c 0,-2.9 -0.4,-4.4 -2.6,-4.4 -1.7,0 -3.3,0.8 -3.3,0.8 v 11.4 H 250 v -14.7 h 3.2 v 0.9 c 0,0 2.1,-1.2 4.1,-1.2 4.1,0 5.1,2.3 5.1,7.2 v 7.8 z m -16.2,0 h -3.2 v -14.7 h 3.2 z m 0,-17.2 h -3.2 v -3.4 h 3.2 z m -6.5,9.7 c 0,6.1 -1.9,7.9 -7.2,7.9 -1.6,0 -5.4,-0.4 -5.4,-0.4 v -20.8 h 3.2 v 6.7 c 0,0 2,-0.9 3.7,-0.9 4,0 5.7,2 5.7,7.5 m -15.6,-0.8 -0.2,2.3 h -9.1 c 0,2.4 0.9,3.5 3.4,3.5 2.3,0 5.4,-0.3 5.4,-0.3 l 0.1,2.4 c 0,0 -3.4,0.7 -5.9,0.7 -4.4,0 -6.1,-2.4 -6.1,-7.5 0,-5.4 2.3,-7.8 6.4,-7.8 3.9,0 6,2.2 6,6.7 m -13.9,-11.8 -4,20.2 h -5.3 l -3.5,-16.2 -3.4,16.2 h -5.3 l -3.9,-20.2 h 3.4 l 2.9,17.3 h 0.6 l 3.8,-17.3 h 3.8 l 3.8,17.3 h 0.6 l 2.9,-17.3 z m 186.7236,27.6 v -46 H 175.4 l -10.7,10.7 v 46 h 221.3236 z"
   class="st1" />
<path
   id="path14"
   d="m 178.13133,210.23841 v -26.39555 l 5.94494,-5.93566 5.94495,-5.93566 h 84.81617 84.81618 v 32.33121 32.33122 h -90.76111 -90.76113 z m 35.01269,-1.94295 c 0.90832,-4.44554 1.75788,-8.43338 1.88791,-8.86187 0.14431,-0.47556 0.7436,1.57307 1.53835,5.2587 0.71606,3.32076 1.58054,7.3086 1.92106,8.86187 l 0.61913,2.82411 h 3.18292 3.18292 l 2.24785,-11.39383 c 1.23632,-6.26661 2.24046,-11.61295 2.23143,-11.88075 -0.011,-0.3273 -0.70489,-0.48692 -2.11661,-0.48692 -2.49323,0 -2.03102,-1.22277 -3.97553,10.51739 -0.7984,4.82046 -1.56408,8.89656 -1.70151,9.058 -0.13743,0.16143 -1.21242,-4.13316 -2.38887,-9.54355 l -2.139,-9.83707 -2.41716,-0.11596 c -1.32944,-0.0638 -2.41717,-0.029 -2.41717,0.0773 0,0.29888 -3.91337,18.24598 -4.16898,19.11936 -0.22551,0.77053 -0.22689,0.77053 -0.49971,0 -0.15047,-0.42497 -0.9526,-4.9358 -1.78253,-10.02407 l -1.50895,-9.2514 h -2.05767 c -1.63716,0 -2.05767,0.12898 -2.05767,0.63109 0,0.3471 0.98615,5.69343 2.19144,11.88075 l 2.19143,11.24965 h 3.19272 3.19271 z m 31.69479,7.48316 c 0.48049,-0.18521 0.68168,-0.69177 0.68168,-1.71631 v -1.45354 l -4.2674,0.0345 c -4.64438,0.0375 -5.18372,-0.1718 -5.68228,-2.20534 l -0.26263,-1.07122 h 5.33968 5.33968 l -0.13614,-3.47789 c -0.14485,-3.70037 -0.60595,-4.7795 -2.71509,-6.3542 -1.45111,-1.08341 -4.99967,-1.33602 -7.16283,-0.50991 -3.10497,1.1858 -4.48434,3.96461 -4.4569,8.97864 0.0233,4.25104 1.16314,6.68397 3.68129,7.85731 1.19359,0.55615 8.13864,0.49707 9.64094,-0.082 z m 15.46856,-0.024 c 2.55491,-1.02227 3.29045,-2.65267 3.46374,-7.67759 0.24064,-6.97796 -1.27903,-9.37626 -5.9607,-9.40705 -1.29626,-0.008 -2.83888,0.11931 -3.42805,0.28408 l -1.07122,0.29957 v -3.70798 -3.70798 h -2.14243 -2.14242 v 12.04695 c 0,11.14573 0.051,12.06028 0.68168,12.22509 0.37492,0.098 2.56249,0.19848 4.86127,0.22333 3.01158,0.0326 4.61514,-0.12909 5.73813,-0.57842 z m 41.3842,0.0938 c 1.46475,-0.44082 1.91664,-0.44314 2.69126,-0.0138 0.51201,0.28379 1.58827,0.52219 2.39168,0.52978 1.44019,0.0136 1.46074,-0.008 1.46074,-1.50265 0,-0.98862 -0.20338,-1.5945 -0.5843,-1.74067 -0.47982,-0.18413 -0.58429,-1.17349 -0.58429,-5.53365 0,-6.17711 -0.41013,-7.51045 -2.635,-8.56621 -1.14447,-0.54309 -2.06321,-0.62375 -4.93644,-0.4334 -5.04865,0.33447 -5.28315,0.43435 -5.28315,2.25025 v 1.50846 l 3.43218,-0.24363 c 4.21263,-0.29902 5.13755,0.0644 5.13755,2.01872 0,1.33366 -0.0202,1.34966 -1.69973,1.34966 -3.34037,0 -5.82367,0.69571 -6.96737,1.95194 -0.89206,0.97984 -1.07122,1.52964 -1.07122,3.28754 0,1.16101 0.17099,2.56048 0.37982,3.10994 0.87017,2.2887 4.46872,3.17122 8.26827,2.02772 z m 13.64277,-5.59769 0.10719,-6.12749 2.62695,-0.78672 2.62695,-0.78672 0.002,-2.02777 0.002,-2.02777 -1.51384,0.53412 c -0.83261,0.29376 -2.05965,0.81636 -2.72673,1.16132 -1.20277,0.62204 -1.21275,0.61911 -1.21275,-0.35663 0,-0.93284 -0.11105,-0.98383 -2.14242,-0.98383 h -2.14244 v 8.76448 8.76449 h 2.13254 2.13253 z m 17.58334,5.59038 c 2.11685,-0.88447 2.97439,-2.32568 2.97439,-4.99885 0,-3.05172 -1.12906,-4.29609 -4.50433,-4.96432 -3.77484,-0.74733 -4.84444,-1.17727 -4.84444,-1.94729 0,-1.63712 2.42858,-2.11768 7.13518,-1.41189 l 1.82407,0.27354 v -1.75911 c 0,-1.72156 -0.0313,-1.76531 -1.46075,-2.04885 -0.80341,-0.15935 -2.86308,-0.2975 -4.57701,-0.307 -5.01608,-0.0278 -6.87247,1.44365 -6.87247,5.44734 0,3.32912 1.1273,4.27391 6.24953,5.23773 3.10294,0.58386 3.90643,1.53424 2.49247,2.94818 -0.57165,0.57166 -1.17914,0.62684 -4.43353,0.4027 l -3.77108,-0.25973 -0.26805,1.42876 c -0.14746,0.78582 -0.12429,1.56873 0.0513,1.73978 0.80804,0.78705 8.25508,0.95007 10.00474,0.21901 z m -61.29849,-8.42215 v -8.56972 h -2.14244 -2.14242 v 8.56972 8.56971 h 2.14242 2.14244 z m 8.18018,1.95508 v -6.61463 l 1.07122,-0.27465 c 1.83926,-0.47157 3.5869,-0.31291 4.29042,0.38951 0.57366,0.57277 0.69493,1.61752 0.8003,6.89473 l 0.12429,6.21967 h 2.16057 2.16057 l -0.16989,-6.52467 c -0.18577,-7.13233 -0.60117,-8.85361 -2.42501,-10.04865 -1.47419,-0.96592 -4.13662,-1.15493 -6.22848,-0.44216 -0.98113,0.3343 -1.78386,0.44317 -1.78386,0.24193 0,-0.20123 -0.9641,-0.36588 -2.14244,-0.36588 h -2.14242 v 8.56972 8.56971 h 2.14242 2.14244 z m -8.18018,-15.00443 v -2.14243 h -2.14244 -2.14242 v 2.14243 2.14243 h 2.14242 2.14244 z"
   style="fill:#ffffff;stroke-width:0.389532" /><path
   sodipodi:nodetypes="cccccccccccc"
   id="path16"
   d="m 178.13133,210.23841 v -26.39555 l 5.94494,-5.93566 5.94495,-5.93566 h 84.81617 195.13184 v 32.33121 20.67298 l -12.86819,11.65824 H 268.89246 178.13133 Z"
   style="fill:#ffffff;stroke-width:0.389532" /><text
   id="text20"
   y="211.45282"
   x="187.76506"
   style="font-style:normal;font-weight:normal;font-size:75.2472px;line-height:1.25;font-family:sans-serif;fill:#ffffff;fill-opacity:1;stroke:none;stroke-width:1.88118;"
   xml:space="preserve"><tspan
     style="font-style:normal;font-variant:normal;font-weight:normal;font-stretch:normal;font-size:30.0989px;font-family:Titillium;-inkscape-font-specification:Titillium;fill:#ffffff;stroke-width:1.88118;"
     y="211.45282"
     x="187.76506"
     id="tspan18"
     sodipodi:role="line">Virtual Tech Con 2020</tspan></text></g>
</svg>
