<?xml version="1.0" encoding="UTF-8" standalone="no"?>
<svg
   xmlns:dc="http://purl.org/dc/elements/1.1/"
   xmlns:cc="http://creativecommons.org/ns#"
   xmlns:rdf="http://www.w3.org/1999/02/22-rdf-syntax-ns#"
   xmlns:svg="http://www.w3.org/2000/svg"
   xmlns="http://www.w3.org/2000/svg"
   xmlns:xlink="http://www.w3.org/1999/xlink"
   xmlns:sodipodi="http://sodipodi.sourceforge.net/DTD/sodipodi-0.dtd"
   xmlns:inkscape="http://www.inkscape.org/namespaces/inkscape"
   version="1.1"
   id="Layer_1"
   x="0px"
   y="0px"
   viewBox="0 0 245.65201 40.695889"
   xml:space="preserve"
   sodipodi:docname="qtvs.svg"
   width="245.65201"
   height="40.695889"
   inkscape:version="1.0 (4035a4fb49, 2020-05-01)"><metadata
   id="metadata21"><rdf:RDF><cc:Work
       rdf:about=""><dc:format>image/svg+xml</dc:format><dc:type
         rdf:resource="http://purl.org/dc/dcmitype/StillImage" /><dc:title></dc:title></cc:Work></rdf:RDF></metadata><defs
   id="defs19"><clipPath
     id="SVGID_2_-3"><use
       height="100%"
       width="100%"
       y="0"
       x="0"
       id="use9-6"
       style="overflow:visible"
       xlink:href="#SVGID_1_" /></clipPath></defs><sodipodi:namedview
   pagecolor="#ffffff"
   bordercolor="#666666"
   borderopacity="1"
   objecttolerance="10"
   gridtolerance="10"
   guidetolerance="10"
   inkscape:pageopacity="0"
   inkscape:pageshadow="2"
   inkscape:window-width="1900"
   inkscape:window-height="1038"
   id="namedview17"
   showgrid="false"
   fit-margin-top="0"
   fit-margin-left="0"
   fit-margin-right="0"
   fit-margin-bottom="0"
   inkscape:zoom="4.72"
   inkscape:cx="114.61092"
   inkscape:cy="24.230074"
   inkscape:window-x="10"
   inkscape:window-y="32"
   inkscape:window-maximized="0"
   inkscape:current-layer="g14"
   inkscape:document-rotation="0" />
<style
   type="text/css"
   id="style2">
	.st0{fill:#707381;}
	.st1{clip-path:url(#SVGID_2_);fill:#FFFFFF;}
</style>

<g
   id="g14"
   transform="matrix(0.62479966,0,0,0.62479966,-47.984614,-107.27809)"
   style="fill:#ff0000">
	<defs
   id="defs7">
		<rect
   id="SVGID_1_"
   x="76.800003"
   y="171.7"
   width="246.3"
   height="56.700001" />
	</defs>
	<clipPath
   id="SVGID_2_">
		<use
   xlink:href="#SVGID_1_"
   style="overflow:visible"
   id="use9"
   x="0"
   y="0"
   width="100%"
   height="100%" />
	</clipPath>
	<path
   class="st1"
   d="m 111.8,208.5 c 1.1,-1.9 1.6,-5 1.6,-9.5 0,-4.5 -0.6,-7.7 -1.7,-9.7 -1.1,-2 -3.2,-3 -6.3,-3 -3.1,0 -5.2,1 -6.3,3 -1.1,2 -1.7,5.2 -1.7,9.7 0,4.4 0.6,7.6 1.7,9.5 1.1,1.9 3.2,2.9 6.3,2.9 3.1,0 5.3,-1 6.4,-2.9 m 19.3,-13.4 v 10.7 c 0,2 0.1,3.3 0.4,3.9 0.3,0.7 1,1 2.2,1 l 4,-0.1 0.2,4.2 c -2.2,0.4 -3.8,0.6 -5,0.6 -2.8,0 -4.7,-0.6 -5.7,-1.9 -1,-1.3 -1.5,-3.7 -1.5,-7.2 V 195 H 122 v -4.5 h 3.7 v -7.1 h 5.3 v 7.1 h 6.7 v 4.5 h -6.6 z m -12,3.9 c 0,3.9 -0.4,7.1 -1.2,9.5 -0.8,2.4 -2.2,4.2 -4.1,5.5 l 4.1,6.6 -5,2.3 -4.3,-7.1 c -0.6,0.2 -1.6,0.3 -3,0.3 -5.1,0 -8.6,-1.4 -10.6,-4.1 -2,-2.7 -3,-7 -3,-12.9 0,-5.9 1,-10.3 3,-13.1 2,-2.9 5.5,-4.3 10.6,-4.3 5,0 8.5,1.4 10.5,4.3 1.9,2.7 3,7.1 3,13 m 24,29.3 10.7,-10.7 v -46 H 87.5 l -10.7,10.7 v 46 z"
   clip-path="url(#SVGID_2_)"
   id="path12"
   inkscape:connector-curvature="0"
   style="fill:#ffffff"
   sodipodi:nodetypes="csssssssccsccccsssccccccccccccsccccssscsccccccccc"
   transform="matrix(1.1487531,0,0,1.1487531,-11.424242,-25.540915)" />
<path
   transform="matrix(1.1487531,0,0,1.1487531,86.472461,-25.492395)"
   sodipodi:nodetypes="ccccccc"
   style="fill:#ffffff"
   inkscape:connector-curvature="0"
   id="path12-7"
   clip-path="url(#SVGID_2_)"
   d="m 310.29133,228.3 10.7,-10.7 v -46 H 87.5 l -10.7,10.7 v 46 z"
   class="st1" /><g
   transform="matrix(0.94381726,0,0,0.94381726,9.3613199,12.356243)"
   style="font-style:normal;font-weight:normal;font-size:75.2472px;line-height:1.25;font-family:sans-serif;fill:#09102b;fill-opacity:1;stroke:none;stroke-width:1.88118"
   id="text20"
   aria-label="Virtual Tech Con 2020"><g
     style="fill:#09102b;fill-opacity:1"
     id="g896"><path
       d="m 202.15233,190.62438 -4.78572,18.78171 h -1.68554 l -4.78572,-18.78171 h -2.40792 l 5.4479,20.82844 h 5.17702 l 5.4479,-20.82844 z"
       style="font-style:normal;font-variant:normal;font-weight:normal;font-stretch:normal;font-size:30.0989px;font-family:Titillium;-inkscape-font-specification:Titillium;fill:#09102b;stroke-width:1.88118;fill-opacity:1"
       id="path18" /><path
       d="m 207.44971,211.45282 h 2.25741 v -15.04945 h -2.25741 z m 0,-18.45063 h 2.25741 v -2.6186 h -2.25741 z"
       style="font-style:normal;font-variant:normal;font-weight:normal;font-stretch:normal;font-size:30.0989px;font-family:Titillium;-inkscape-font-specification:Titillium;fill:#09102b;stroke-width:1.88118;fill-opacity:1"
       id="path20" /><path
       d="m 214.04136,211.45282 h 2.25742 v -11.0463 c 0,0 2.6487,-1.47484 5.478,-2.04672 v -2.28752 c -2.8895,0.57188 -5.5081,2.37782 -5.5081,2.37782 v -2.04673 h -2.22732 z"
       style="font-style:normal;font-variant:normal;font-weight:normal;font-stretch:normal;font-size:30.0989px;font-family:Titillium;-inkscape-font-specification:Titillium;fill:#09102b;stroke-width:1.88118;fill-opacity:1"
       id="path22" /><path
       d="m 232.25116,198.3598 v -1.95643 h -4.78573 v -4.60513 h -2.22732 v 4.60513 h -2.13702 v 1.95643 h 2.13702 v 7.91601 c 0,4.33424 1.05347,5.5081 4.15365,5.5081 1.05346,0 3.07009,-0.33109 3.07009,-0.33109 l -0.15049,-1.86613 c 0,0 -1.83604,0.18059 -2.67881,0.18059 -1.95643,0 -2.16712,-0.93306 -2.16712,-4.21384 v -7.19364 z"
       style="font-style:normal;font-variant:normal;font-weight:normal;font-stretch:normal;font-size:30.0989px;font-family:Titillium;-inkscape-font-specification:Titillium;fill:#09102b;stroke-width:1.88118;fill-opacity:1"
       id="path24" /><path
       d="m 244.41111,196.40337 v 12.22015 c 0,0 -1.89623,1.11366 -4.12355,1.11366 -2.7992,0 -3.16039,-1.35445 -3.16039,-5.5081 v -7.82571 h -2.25741 v 7.85581 c 0,5.5382 0.87286,7.49463 5.08671,7.49463 2.19722,0 4.45464,-1.35445 4.45464,-1.35445 v 1.05346 h 2.25742 v -15.04945 z"
       style="font-style:normal;font-variant:normal;font-weight:normal;font-stretch:normal;font-size:30.0989px;font-family:Titillium;-inkscape-font-specification:Titillium;fill:#09102b;stroke-width:1.88118;fill-opacity:1"
       id="path26" /><path
       d="m 261.62763,200.9483 c 0,-3.28078 -1.44475,-4.84592 -4.84593,-4.84592 -2.5885,0 -5.89938,0.66218 -5.89938,0.66218 l 0.0903,1.71563 c 0,0 3.58177,-0.39128 5.68869,-0.39128 1.80593,0 2.7089,0.75247 2.7089,2.85939 v 1.29426 l -4.72553,0.45148 c -3.10018,0.30099 -4.60513,1.56514 -4.60513,4.45464 0,3.03999 1.50495,4.60513 4.24395,4.60513 2.7089,0 5.4178,-1.20396 5.4178,-1.20396 0.90296,0.90297 1.98652,1.20396 3.58177,1.20396 l 0.0903,-1.77584 c -0.96316,-0.12039 -1.68554,-0.45148 -1.74573,-1.32435 z m -2.25742,3.00989 v 4.96632 c 0,0 -2.49821,0.93307 -4.72553,0.93307 -1.53504,0 -2.28751,-1.02336 -2.28751,-2.7691 0,-1.65544 0.72237,-2.52831 2.5584,-2.7089 z"
       style="font-style:normal;font-variant:normal;font-weight:normal;font-stretch:normal;font-size:30.0989px;font-family:Titillium;-inkscape-font-specification:Titillium;fill:#09102b;stroke-width:1.88118;fill-opacity:1"
       id="path28" /><path
       d="m 266.26284,211.45282 h 2.25741 v -21.61101 h -2.25741 z"
       style="font-style:normal;font-variant:normal;font-weight:normal;font-stretch:normal;font-size:30.0989px;font-family:Titillium;-inkscape-font-specification:Titillium;fill:#09102b;stroke-width:1.88118;fill-opacity:1"
       id="path30" /><path
       d="m 277.88096,192.70121 h 6.41107 v 18.75161 h 2.28752 v -18.75161 h 6.35086 v -2.07683 h -15.04945 z"
       style="font-style:normal;font-variant:normal;font-weight:normal;font-stretch:normal;font-size:30.0989px;font-family:Titillium;-inkscape-font-specification:Titillium;fill:#09102b;stroke-width:1.88118;fill-opacity:1"
       id="path32" /><path
       d="m 298.31804,209.76728 c -2.94969,0 -3.94295,-1.68554 -3.94295,-4.90612 h 9.93263 l 0.1204,-1.71564 c 0,-4.93622 -2.04672,-7.04314 -6.04988,-7.04314 -3.82256,0 -6.29067,2.19722 -6.29067,7.91601 0,5.11681 1.47485,7.73542 5.95958,7.73542 2.43801,0 5.86929,-0.48158 5.86929,-0.48158 l -0.0602,-1.77584 c 0,0 -3.28078,0.27089 -5.5382,0.27089 z m -3.97305,-6.71205 c 0.0301,-3.64197 1.47484,-5.05662 4.03325,-5.05662 2.6487,0 3.79246,1.32435 3.79246,5.05662 z"
       style="font-style:normal;font-variant:normal;font-weight:normal;font-stretch:normal;font-size:30.0989px;font-family:Titillium;-inkscape-font-specification:Titillium;fill:#09102b;stroke-width:1.88118;fill-opacity:1"
       id="path34" /><path
       d="m 313.57816,196.10238 c -4.48473,0 -6.26057,2.10692 -6.26057,7.55482 0,5.89939 1.41465,8.09661 6.20037,8.09661 1.38455,0 4.18375,-0.42139 4.18375,-0.42139 l -0.0903,-1.86613 c 0,0 -2.40791,0.27089 -3.55167,0.27089 -3.73226,0 -4.42453,-1.62534 -4.42453,-6.07998 0,-4.03325 0.93306,-5.53819 4.39444,-5.53819 1.14375,0 3.55167,0.27089 3.55167,0.27089 l 0.0903,-1.83604 c 0,0 -2.7089,-0.45148 -4.09345,-0.45148 z"
       style="font-style:normal;font-variant:normal;font-weight:normal;font-stretch:normal;font-size:30.0989px;font-family:Titillium;-inkscape-font-specification:Titillium;fill:#09102b;stroke-width:1.88118;fill-opacity:1"
       id="path36" /><path
       d="m 323.33018,211.45282 v -12.43085 c 0,0 2.10692,-0.90296 4.24394,-0.90296 2.7691,0 3.22059,1.47484 3.22059,5.4479 v 7.88591 h 2.25741 v -7.94611 c 0,-5.3576 -0.96316,-7.40433 -5.08671,-7.40433 -2.22732,0 -4.63523,1.14376 -4.63523,1.14376 v -7.40433 h -2.25742 v 21.61101 z"
       style="font-style:normal;font-variant:normal;font-weight:normal;font-stretch:normal;font-size:30.0989px;font-family:Titillium;-inkscape-font-specification:Titillium;fill:#09102b;stroke-width:1.88118;fill-opacity:1"
       id="path38" /><path
       d="m 356.73989,209.1352 c -1.44474,0.27089 -3.67206,0.54178 -5.3576,0.54178 -4.75563,0 -5.5081,-2.76909 -5.5081,-8.57818 0,-5.92948 0.81267,-8.69858 5.4479,-8.69858 1.62534,0 4.06335,0.30099 5.4178,0.54178 l 0.0903,-1.95643 c -1.32435,-0.27089 -3.61187,-0.66218 -5.74889,-0.66218 -6.26057,0 -7.61502,3.73227 -7.61502,10.77541 0,6.86255 1.38455,10.65501 7.61502,10.65501 1.98653,0 4.27405,-0.33109 5.74889,-0.63208 z"
       style="font-style:normal;font-variant:normal;font-weight:normal;font-stretch:normal;font-size:30.0989px;font-family:Titillium;-inkscape-font-specification:Titillium;fill:#09102b;stroke-width:1.88118;fill-opacity:1"
       id="path40" /><path
       d="m 365.70932,196.10238 c -4.75562,0 -6.44116,2.46811 -6.44116,7.64512 0,5.478 1.38455,8.00631 6.44116,8.00631 5.08672,0 6.44117,-2.52831 6.44117,-8.00631 0,-5.17701 -1.65544,-7.64512 -6.44117,-7.64512 z m 0,13.695 c -3.55167,0 -4.12355,-1.77583 -4.12355,-6.04988 0,-4.18375 0.93307,-5.68869 4.12355,-5.68869 3.22059,0 4.12355,1.50494 4.12355,5.68869 0,4.27405 -0.54178,6.04988 -4.12355,6.04988 z"
       style="font-style:normal;font-variant:normal;font-weight:normal;font-stretch:normal;font-size:30.0989px;font-family:Titillium;-inkscape-font-specification:Titillium;fill:#09102b;stroke-width:1.88118;fill-opacity:1"
       id="path42" /><path
       d="m 378.07996,211.45282 v -12.22015 c 0,0 2.07683,-1.11366 4.24395,-1.11366 2.7992,0 3.25068,1.47484 3.25068,5.4479 v 7.88591 h 2.22732 v -7.94611 c 0,-5.3576 -0.93307,-7.40433 -5.08672,-7.40433 -2.22731,0 -4.66532,1.35445 -4.66532,1.35445 v -1.05346 h -2.22732 v 15.04945 z"
       style="font-style:normal;font-variant:normal;font-weight:normal;font-stretch:normal;font-size:30.0989px;font-family:Titillium;-inkscape-font-specification:Titillium;fill:#09102b;stroke-width:1.88118;fill-opacity:1"
       id="path44" /><path
       d="m 411.21879,211.45282 v -2.01663 h -9.96273 l 5.2974,-5.3877 c 2.7992,-2.7089 4.15365,-4.45464 4.15365,-7.43443 0,-3.73226 -2.10692,-5.3275 -6.29067,-5.3275 -2.88949,0 -5.74889,0.81267 -5.74889,0.81267 l 0.18059,1.92633 c 0,0 2.9497,-0.66218 5.14692,-0.66218 2.85939,0 4.33424,0.84277 4.33424,3.49147 0,2.34772 -1.53505,3.97306 -4.00316,6.53146 l -5.80908,6.11008 v 1.95643 z"
       style="font-style:normal;font-variant:normal;font-weight:normal;font-stretch:normal;font-size:30.0989px;font-family:Titillium;-inkscape-font-specification:Titillium;fill:#09102b;stroke-width:1.88118;fill-opacity:1"
       id="path46" /><path
       d="m 421.69319,191.25646 c -4.57504,0 -7.22374,2.40791 -7.22374,10.59481 0,7.64512 2.7089,9.90254 7.25384,9.90254 4.54493,0 7.22373,-2.31762 7.22373,-9.93264 0,-8.1869 -2.55841,-10.56471 -7.25383,-10.56471 z m 0.0301,2.07682 c 3.31087,0 4.84592,1.80594 4.84592,8.48789 0,6.23047 -1.71564,7.88591 -4.84592,7.88591 -3.13029,0 -4.84593,-1.62534 -4.84593,-7.85581 0,-6.77225 1.59524,-8.51799 4.84593,-8.51799 z"
       style="font-style:normal;font-variant:normal;font-weight:normal;font-stretch:normal;font-size:30.0989px;font-family:Titillium;-inkscape-font-specification:Titillium;fill:#09102b;stroke-width:1.88118;fill-opacity:1"
       id="path48" /><path
       d="m 444.92953,211.45282 v -2.01663 h -9.96274 l 5.29741,-5.3877 c 2.7992,-2.7089 4.15365,-4.45464 4.15365,-7.43443 0,-3.73226 -2.10692,-5.3275 -6.29067,-5.3275 -2.8895,0 -5.74889,0.81267 -5.74889,0.81267 l 0.18059,1.92633 c 0,0 2.94969,-0.66218 5.14691,-0.66218 2.8594,0 4.33425,0.84277 4.33425,3.49147 0,2.34772 -1.53505,3.97306 -4.00316,6.53146 l -5.80909,6.11008 v 1.95643 z"
       style="font-style:normal;font-variant:normal;font-weight:normal;font-stretch:normal;font-size:30.0989px;font-family:Titillium;-inkscape-font-specification:Titillium;fill:#09102b;stroke-width:1.88118;fill-opacity:1"
       id="path50" /><path
       d="m 455.40393,191.25646 c -4.57504,0 -7.22374,2.40791 -7.22374,10.59481 0,7.64512 2.7089,9.90254 7.25383,9.90254 4.54494,0 7.22374,-2.31762 7.22374,-9.93264 0,-8.1869 -2.55841,-10.56471 -7.25383,-10.56471 z m 0.0301,2.07682 c 3.31088,0 4.84593,1.80594 4.84593,8.48789 0,6.23047 -1.71564,7.88591 -4.84593,7.88591 -3.13028,0 -4.84592,-1.62534 -4.84592,-7.85581 0,-6.77225 1.59524,-8.51799 4.84592,-8.51799 z"
       style="font-style:normal;font-variant:normal;font-weight:normal;font-stretch:normal;font-size:30.0989px;font-family:Titillium;-inkscape-font-specification:Titillium;fill:#09102b;stroke-width:1.88118;fill-opacity:1"
       id="path52" /></g></g></g>
</svg>
